<svg data-v-423bf9ae="" xmlns="http://www.w3.org/2000/svg" viewBox="0 0 60.00000000000001 60" class="icon"><!----><!----><!----><!----><g data-v-423bf9ae="" id="9659dad7-4b54-4d84-86aa-aab611dc97df" transform="matrix(0.6042248606681824,0,0,0.6042248606681824,-2.10062575340271,-0.715157151222229)" stroke="none" fill="black"><path d="M81.263 1.182h-56.99c-15.275 0-20.797 5.312-20.797 21.18v57.192c0 15.373 5.522 20.93 20.796 20.93h56.991c15.403 0 21.515-5.557 21.515-20.93V22.362c0-15.868-5.912-21.18-21.515-21.18zM61.226 29.796h6.995L45.688 71.87h-8.092M70.12 36.538l.009-6.695 22.37 17.635c-.032 2.082.032 4.482 0 6.564L70.13 71.676l.018-6.755L88.508 50.79zM17.746 50.789l18.361 14.132.018 6.755-22.37-17.634c-.032-2.082.032-4.482 0-6.564l22.37-17.635.01 6.695z"></path></g><!----></svg>